<svg xmlns="http://www.w3.org/2000/svg" xmlns:xlink="http://www.w3.org/1999/xlink" width="0" height="0">

  <symbol id="search" width="24px" height="24.859px" viewBox="11.5 14.058 24 24.859">
    <path d="M35.135,36.7l-5.916-6.153c1.521-1.808,2.355-4.084,2.355-6.452c0-5.534-4.503-10.037-10.037-10.037
    	S11.5,18.561,11.5,24.095s4.503,10.037,10.037,10.037c2.078,0,4.057-0.627,5.75-1.816l5.961,6.2
    	c0.249,0.259,0.584,0.401,0.943,0.401c0.34,0,0.662-0.13,0.907-0.365C35.619,38.051,35.636,37.221,35.135,36.7z M21.537,16.676
    	c4.091,0,7.418,3.328,7.418,7.418s-3.328,7.418-7.418,7.418s-7.418-3.328-7.418-7.418S17.446,16.676,21.537,16.676z"/>
  </symbol>

  <symbol id="social-vk" viewBox="0 0 24 24">
    <path d="M15.193,11.089v-0.053c1.457-0.437,2.599-1.837,2.599-3.883c0-2.65-2.178-4.152-4.539-4.152h-8.15v18h7.458
    	c4.548,0,6.332-2.841,6.334-5.461C18.897,12.709,17.353,11.535,15.193,11.089z M9.306,6.202h0.946c0.686,0,1.755-0.079,2.339,0.262
    	c0.56,0.341,0.864,0.97,0.864,1.626c0,0.604-0.252,1.259-0.736,1.628c-0.61,0.473-1.45,0.42-2.163,0.42h-1.25V6.202z M13.613,17.273
    	c-0.636,0.447-1.576,0.394-2.314,0.394H9.308v-4.472h2.171c0.66,0,1.474,0,2.059,0.341c0.584,0.341,0.99,1.158,0.989,1.839
    	C14.527,16.11,14.198,16.881,13.613,17.273z"/>
  </symbol>

  <symbol id="social-fb" viewBox="0 0 24 24">
    <path d="M15.878,11.997L13.419,12L13.418,21h-3.374V12h-2.25V8.898l2.25-0.001L10.04,7.071c0-2.531,0.686-4.07,3.665-4.07h2.483
    	v3.103h-1.553c-1.16,0-1.216,0.433-1.216,1.241l-0.004,1.553h2.79L15.878,11.997z"/>
  </symbol>

  <symbol id="social-insta" viewBox="0 0 24 24">
    <path d="M12,4.622c2.403,0,2.688,0.009,3.637,0.052c0.877,0.04,1.354,0.187,1.671,0.31c0.42,0.163,0.72,0.358,1.035,0.673
  		c0.315,0.315,0.51,0.615,0.673,1.035c0.123,0.317,0.27,0.794,0.31,1.671c0.043,0.949,0.052,1.234,0.052,3.637
  		s-0.009,2.688-0.052,3.637c-0.04,0.877-0.187,1.354-0.31,1.671c-0.163,0.42-0.358,0.72-0.673,1.035
  		c-0.315,0.315-0.615,0.51-1.035,0.673c-0.317,0.123-0.794,0.27-1.671,0.31c-0.949,0.043-1.233,0.052-3.637,0.052
  		s-2.688-0.009-3.637-0.052c-0.877-0.04-1.354-0.187-1.671-0.31c-0.42-0.163-0.72-0.358-1.035-0.673
  		c-0.315-0.315-0.51-0.615-0.673-1.035c-0.123-0.317-0.27-0.794-0.31-1.671C4.631,14.688,4.622,14.403,4.622,12
  		s0.009-2.688,0.052-3.637c0.04-0.877,0.187-1.354,0.31-1.671c0.163-0.42,0.358-0.72,0.673-1.035
  		c0.315-0.315,0.615-0.51,1.035-0.673c0.317-0.123,0.794-0.27,1.671-0.31C9.312,4.631,9.597,4.622,12,4.622 M12,3
  		C9.556,3,9.249,3.01,8.289,3.054C7.331,3.098,6.677,3.25,6.105,3.472C5.513,3.702,5.011,4.01,4.511,4.511
  		c-0.5,0.5-0.808,1.002-1.038,1.594C3.25,6.677,3.098,7.331,3.054,8.289C3.01,9.249,3,9.556,3,12c0,2.444,0.01,2.751,0.054,3.711
  		c0.044,0.958,0.196,1.612,0.418,2.185c0.23,0.592,0.538,1.094,1.038,1.594c0.5,0.5,1.002,0.808,1.594,1.038
  		c0.572,0.222,1.227,0.375,2.185,0.418C9.249,20.99,9.556,21,12,21s2.751-0.01,3.711-0.054c0.958-0.044,1.612-0.196,2.185-0.418
  		c0.592-0.23,1.094-0.538,1.594-1.038c0.5-0.5,0.808-1.002,1.038-1.594c0.222-0.572,0.375-1.227,0.418-2.185
  		C20.99,14.751,21,14.444,21,12s-0.01-2.751-0.054-3.711c-0.044-0.958-0.196-1.612-0.418-2.185c-0.23-0.592-0.538-1.094-1.038-1.594
  		c-0.5-0.5-1.002-0.808-1.594-1.038c-0.572-0.222-1.227-0.375-2.185-0.418C14.751,3.01,14.444,3,12,3L12,3z"/>
  	<path d="M12,7.378c-2.552,0-4.622,2.069-4.622,4.622S9.448,16.622,12,16.622s4.622-2.069,4.622-4.622S14.552,7.378,12,7.378z
  		 M12,15c-1.657,0-3-1.343-3-3s1.343-3,3-3s3,1.343,3,3S13.657,15,12,15z"/>
  	<circle cx="16.804" cy="7.196" r="1.08"/>
  </symbol>

  <symbol id="social-youtube" viewBox="0 0 24 24">
    <path d="M21.8,8.001c0,0-0.196-1.378-0.795-1.985c-0.76-0.796-1.613-0.8-2.004-0.847
			c-2.799-0.203-6.997-0.203-6.997-0.203h-0.009c0,0-4.198,0-6.997,0.203C4.608,5.216,3.756,5.22,2.995,6.016
			C2.395,6.623,2.2,8.001,2.2,8.001S2,9.62,2,11.238v1.517c0,1.618,0.2,3.237,0.2,3.237s0.195,1.378,0.795,1.985
			c0.761,0.797,1.76,0.771,2.205,0.855c1.6,0.153,6.8,0.201,6.8,0.201s4.203-0.006,7.001-0.209c0.391-0.047,1.244-0.051,2.004-0.847
			c0.6-0.607,0.795-1.985,0.795-1.985s0.2-1.618,0.2-3.237v-1.517C22,9.62,21.8,8.001,21.8,8.001z M9.935,14.594L9.934,8.975
			l5.404,2.819L9.935,14.594z"/>
    </symbol>
</svg>
