<?xml version="1.0" encoding="utf-8"?>
<!-- Generator: Adobe Illustrator 17.0.0, SVG Export Plug-In . SVG Version: 6.00 Build 0)  -->
<!DOCTYPE svg PUBLIC "-//W3C//DTD SVG 1.0//EN" "http://www.w3.org/TR/2001/REC-SVG-20010904/DTD/svg10.dtd">
<svg version="1.0" id="Capa_1" xmlns="http://www.w3.org/2000/svg" xmlns:xlink="http://www.w3.org/1999/xlink" x="0px" y="0px"
	 width="24px" height="24.859px" viewBox="11.5 14.058 24 24.859" enable-background="new 11.5 14.058 24 24.859"
	 xml:space="preserve">
<path d="M34.319,35.918l-5.712-5.941c1.469-1.746,2.273-3.943,2.273-6.229c0-5.343-4.347-9.69-9.69-9.69s-9.69,4.347-9.69,9.69
	s4.347,9.69,9.69,9.69c2.006,0,3.917-0.605,5.552-1.753l5.755,5.986c0.241,0.25,0.564,0.388,0.911,0.388
	c0.328,0,0.64-0.125,0.876-0.353C34.786,37.222,34.802,36.421,34.319,35.918z M21.19,16.586c3.949,0,7.162,3.213,7.162,7.162
	s-3.213,7.162-7.162,7.162s-7.162-3.213-7.162-7.162S17.241,16.586,21.19,16.586z"/>
</svg>
